:SAMPLES-PER-SECOND 30
:FULLY-SPECIFIED
:DEGREES
92
root  17.3639 39.5534 1.94732 -28.0423 -81.5693 24.0023
RightUpLeg  -3.93047 -13.8114 -12.5803
RightLeg  8.30439 6.86945 1.73803
RightFoot  1.15287 -0.543335 5.03076
RightToes  2.21189e-009 0 -3.6325e-017
Spine  6.96094 -0.732718 9.00047
Spine1  10.0185 0.983312 -3.8231
HEad  -2.18106 -1.22319 -7.7505
LeftShoulder1  -0.535614 5.04452 -28.5899
LeftArm  -14.5273 20.4914 -47.0602
LeftForeArm  28.7206 -3.75553 -3.01467
LeftHand  -0.0209247 4.20304 -0.318062
RightShoulder  -0.619587 -5.5578 23.4154
RightArm  8.41574 -3.91469 52.5353
RightForeArm  13.6837 15.6057 4.21863
RightHand  -0.296825 2.77357 -4.34716
LeftUpLeg  0.0754371 2.96385 8.34837
LeftLeg  13.8052 -4.39676 -0.619414
LeftFoot  -7.34906 0.242365 -5.67967
LeftToes  -3.01956e-010 3.07132e-011 1.04116e-011
93
root  17.8794 39.3844 2.53922 -24.4785 -81.6878 20.4273
RightUpLeg  -4.75286 -13.983 -12.8872
RightLeg  8.40249 6.99205 1.67345
RightFoot  1.91259 -0.673263 5.90075
RightToes  2.21189e-009 0 -3.6325e-017
Spine  7.17764 -0.803471 9.29436
Spine1  9.46636 0.911106 -3.66401
HEad  -2.3299 -1.54021 -7.55768
LeftShoulder1  -0.53073 5.04732 -28.198
LeftArm  -14.4428 18.6665 -46.8059
LeftForeArm  27.6027 -3.9575 -3.01291
LeftHand  -0.0252787 3.73917 0.378219
RightShoulder  -0.576043 -5.43414 23.0624
RightArm  8.24825 -2.79153 50.9108
RightForeArm  10.6775 15.8749 4.24004
RightHand  -0.518116 4.01163 -6.7083
LeftUpLeg  0.31441 0.900759 9.07278
LeftLeg  15.552 -4.51323 -1.04423
LeftFoot  -7.87387 0.216726 -5.56395
LeftToes  -3.01956e-010 3.07132e-011 1.04116e-011
94
root  18.456 39.1748 3.21145 -21.202 -81.9288 17.1797
RightUpLeg  -5.73433 -14.2118 -13.2921
RightLeg  8.46206 7.36067 1.61394
RightFoot  2.71203 -0.848199 7.02644
RightToes  2.21189e-009 0 -3.6325e-017
Spine  7.30034 -0.915856 9.4769
Spine1  9.13627 0.822187 -3.60436
HEad  -2.86198 -1.52987 -6.43987
LeftShoulder1  -0.481578 4.92147 -27.762
LeftArm  -14.2108 16.7797 -46.6478
LeftForeArm  27.5325 -5.21759 -3.24204
LeftHand  -0.0231549 3.46129 0.398799
RightShoulder  -0.540893 -5.317 23.0277
RightArm  7.97993 -1.15957 48.9672
RightForeArm  9.49295 15.8744 4.20085
RightHand  -0.501471 4.98075 -5.89433
LeftUpLeg  0.597772 -1.04994 9.25928
LeftLeg  17.0039 -5.20091 -1.47549
LeftFoot  -8.34658 0.215236 -6.5524
LeftToes  -3.01956e-010 3.07132e-011 1.04116e-011
95
root  19.1077 38.9355 3.97904 -19.0495 -82.0921 15.0697
RightUpLeg  -6.71146 -14.7842 -14.1431
RightLeg  8.3153 8.10701 1.72327
RightFoot  3.69312 -1.09024 8.43483
RightToes  2.21189e-009 0 -3.6325e-017
Spine  7.38758 -1.0324 9.42182
Spine1  9.12253 0.717609 -3.61988
HEad  -3.61259 -1.23383 -5.43608
LeftShoulder1  -0.376824 4.62787 -27.3317
LeftArm  -13.7195 14.3039 -46.764
LeftForeArm  28.3277 -6.5789 -3.62795
LeftHand  -0.0191489 2.12237 0.197549
RightShoulder  -0.523015 -5.26846 22.8101
RightArm  7.35047 0.724804 47.182
RightForeArm  8.52302 15.9652 4.10896
RightHand  -0.553321 5.25895 -6.33827
LeftUpLeg  0.907671 -2.40657 8.70357
LeftLeg  17.9253 -6.0067 -1.8527
LeftFoot  -10.1864 0.164322 -9.19627
LeftToes  -3.01956e-010 3.07132e-011 1.04116e-011
96
root  19.8073 38.7897 4.76185 -22.1593 -82.3638 18.3665
RightUpLeg  -7.22297 -15.4308 -15.5046
RightLeg  6.45764 9.19601 1.44812
RightFoot  5.6017 -1.47839 10.1487
RightToes  2.21189e-009 0 -3.6325e-017
Spine  7.70964 -0.984867 8.21385
Spine1  8.86939 0.672479 -3.95949
HEad  -4.524 -1.54469 -4.28842
LeftShoulder1  -0.355552 4.57129 -27.1042
LeftArm  -13.0447 11.3016 -46.9922
LeftForeArm  28.2944 -8.06522 -4.1447
LeftHand  -0.0538278 2.27651 1.64275
RightShoulder  -0.459751 -5.08824 22.1315
RightArm  6.18239 2.36746 45.8755
RightForeArm  8.33067 16.1261 3.91112
RightHand  -0.487246 4.11584 -6.221
LeftUpLeg  0.78528 -2.10375 6.95055
LeftLeg  17.6547 -6.36277 -1.9218
LeftFoot  -13.0811 -0.0211277 -6.42723
LeftToes  -3.01956e-010 3.07132e-011 1.04116e-011
